<?xml version="1.0"?>
<svg xmlns="http://www.w3.org/2000/svg" height="512px" viewBox="-41 0 374 374.10269" width="512px" class="hovered-paths"><g><path d="m284.371094 81.917969v95.929687c-.023438 78.628906-47.195313 149.570313-119.691406 180.011719l-21.398438 9.238281-18.980469-8.269531c-71.171875-31.097656-117.191406-101.367187-117.25-179.039063v-97.871093l136.710938-74.917969zm0 0" fill="#e48e66" data-original="#E48E66" class="hovered-path" style="fill:#69E781" data-old_color="#e48e66"/><g fill="#63316d"><path d="m287.664062 75.742188-140.613281-74.921876c-2.082031-1.109374-4.582031-1.09375-6.652343.042969l-136.710938 74.917969c-2.242188 1.226562-3.6367188 3.582031-3.6367188 6.136719v97.871093c.0820308 80.449219 47.7460938 153.230469 121.4531248 185.460938l18.980469 8.269531c1.777344.773438 3.792969.777344 5.570313.011719l21.375-9.230469c75.074218-31.542969 123.917968-105.019531 123.941406-186.453125v-95.929687c0-2.585938-1.425782-4.960938-3.707032-6.175781zm-10.292968 102.105468c-.027344 75.816406-45.511719 144.21875-115.414063 173.566406l-.050781.019532-18.613281 8.035156-16.179688-7.050781c-68.613281-30-112.980469-97.746094-113.0625-172.628907v-93.722656l129.761719-71.109375 133.558594 71.164063zm0 0" data-original="#63316D" class="active-path" style="fill:#5F7D95" data-old_color="#63316D"/><path d="m92.164062 175.242188c-2.511718-2.9375-6.929687-3.285157-9.867187-.777344-2.941406 2.511718-3.289063 6.929687-.777344 9.871094l36.980469 43.300781c2.464844 2.890625 6.789062 3.28125 9.738281.882812l86.109375-70.058593c3-2.441407 3.453125-6.851563 1.015625-9.847657-2.441406-3-6.851562-3.453125-9.851562-1.015625l-80.804688 65.75zm0 0" data-original="#63316D" class="active-path" style="fill:#5F7D95" data-old_color="#63316D"/></g></g> </svg>
